<svg preserveAspectRatio="xMidYMid meet" data-bbox="28.001 29.2 143.998 141.6" viewBox="28.001 29.2 143.998 141.6" height="200" width="200" xmlns="http://www.w3.org/2000/svg" data-type="color" role="presentation" aria-hidden="true"><defs><style>#comp-l253c4kx svg [data-color="1"] {fill: #E9EBF8;}</style></defs>
    <g>
        <path d="M100 170.8c-.442 0-.885-.099-1.295-.294l-68.999-33.141a3.018 3.018 0 0 1-1.705-2.719V65.353c0-1.161.664-2.217 1.705-2.719l68.999-33.141a3.006 3.006 0 0 1 2.59 0l68.999 33.141a3.018 3.018 0 0 1 1.705 2.719v69.294a3.018 3.018 0 0 1-1.705 2.719l-68.999 33.141a3.03 3.03 0 0 1-1.295.293zm-65.999-38.053l65.999 31.7 65.999-31.7V67.252L100 35.551l-65.999 31.7v65.496z" fill="white" data-color="1"></path>
        <path fill="white" d="M56.295 80.122l-2.589-5.437 68.999-33.14 2.59 5.437-69 33.14z" data-color="1"></path>
        <path d="M118.001 143.685a3 3 0 0 1-2.726-1.751 3.02 3.02 0 0 1 1.468-3.998l39-18.077a2.997 2.997 0 0 1 3.981 1.474 3.02 3.02 0 0 1-1.468 3.998l-39 18.077a2.97 2.97 0 0 1-1.255.277z" fill="white" data-color="1"></path>
        <path fill="white" d="M103 98.493v69.294h-6V98.493h6z" data-color="1"></path>
        <path d="M150.999 116.57c-1.657 0-3-1.349-3-3.013V92.468a3.006 3.006 0 0 1 3-3.013c1.657 0 3 1.349 3 3.013v21.089a3.006 3.006 0 0 1-3 3.013z" fill="white" data-color="1"></path>
        <path d="M143.532 107.76a2.985 2.985 0 0 1-1.56-.441 3.02 3.02 0 0 1-.998-4.141l7.465-12.279a3.002 3.002 0 0 1 1.925-1.374 2.966 2.966 0 0 1 2.319.45l7.465 5.081a3.02 3.02 0 0 1 .8 4.184 2.987 2.987 0 0 1-4.166.803l-4.86-3.308-5.826 9.583a3.002 3.002 0 0 1-2.564 1.442z" fill="white" data-color="1"></path>
        <path d="M127 128.621c-1.657 0-3-1.349-3-3.013v-21.089a3.006 3.006 0 0 1 3-3.013c1.657 0 3 1.349 3 3.013v21.089a3.007 3.007 0 0 1-3 3.013z" fill="white" data-color="1"></path>
        <path d="M119.532 119.811a2.985 2.985 0 0 1-1.56-.441 3.02 3.02 0 0 1-.998-4.141l7.465-12.279a3.002 3.002 0 0 1 1.925-1.374 2.976 2.976 0 0 1 2.319.45l7.465 5.081a3.02 3.02 0 0 1 .8 4.184 2.988 2.988 0 0 1-4.166.803l-4.86-3.308-5.826 9.583a3 3 0 0 1-2.564 1.442z" fill="white" data-color="1"></path>
        <path d="M73 107.532a3 3 0 0 1-1.342-.318l-18-9.038A3.012 3.012 0 0 1 52 95.481V77.404h6v16.214l12 6.026V86.442c0-1.161.664-2.217 1.705-2.719l68.999-33.141 2.59 5.437L76 88.341v16.178a3.003 3.003 0 0 1-3 3.013z" fill="white" data-color="1"></path>
        <path d="M100 101.506c-.442 0-.885-.099-1.295-.294L72.644 88.694l2.59-5.437L100 95.154l67.704-32.52 2.59 5.437-68.999 33.141c-.41.195-.853.294-1.295.294z" fill="white" data-color="1"></path>
        <path fill="white" d="M54.248 79.859L29.706 68.071l2.59-5.437 24.541 11.788-2.589 5.437z" data-color="1"></path>
    </g>
</svg>