<svg preserveAspectRatio="xMidYMid meet" data-bbox="34.047 20.5 132.002 159" viewBox="34.047 20.5 132.002 159" xmlns="http://www.w3.org/2000/svg" data-type="color" role="presentation" aria-hidden="true"><defs><style>#comp-l253a848 svg [data-color="1"] {fill: #E9EBF8;}</style></defs>
    <g>
        <path d="M61.7 57.8c0-20.6 16.7-37.3 37.3-37.3s37.3 16.7 37.3 37.3S119.6 95.1 99 95.1c-20.6.1-37.3-16.6-37.3-37.3z" fill="white" data-color="1"></path>
        <path d="M34.1 179.5V132s-3.4-37.3 44.2-32.4c0 0-6 62.9 20.7 79.9H34.1z" fill="white" data-color="1"></path>
        <path d="M166 179.5V132s3.3-37.3-44.3-32.4c0 0 5.9 62.9-20.9 79.9H166z" fill="white" data-color="1"></path>
        <path d="M91.5 104.1h16.8s-2.1 12.6-5.9 12.6h-5.5s-3.6.3-5.4-12.6z" fill="white" data-color="1"></path>
        <path d="M95.1 126.4c.9-.8 3.3-1.4 4.3-1.4 1.3 0 4 .6 5 1.4 2.4 1.9 5.2 7.8 5.7 10.7.1.6.1 1.9 0 2.4-1.4 7.8-9.4 30-9.4 30s-.5.4-.9.4c-.6 0-.9-.4-.9-.4s-7.9-22.2-9.4-30c-.1-.6-.1-1.9 0-2.4.6-3.1 3.3-8.8 5.6-10.7z" fill="white" data-color="1"></path>
    </g>
</svg>